<?xml version="1.0" encoding="utf-8"?>
<!-- Generator: Adobe Illustrator 25.2.0, SVG Export Plug-In . SVG Version: 6.00 Build 0)  -->
<svg version="1.1" id="Layer_1" xmlns="http://www.w3.org/2000/svg" xmlns:xlink="http://www.w3.org/1999/xlink" x="0px" y="0px"
	 viewBox="0 0 605.94 143.99" style="enable-background:new 0 0 605.94 143.99;" xml:space="preserve">
<style type="text/css">
	.st0{fill:#BFBFBF;}
	.st1{fill:#494949;}
	.st2{fill:#A3A3A3;}
	.st3{fill:#FFFFFF;}
	.st4{display:none;}
	.st5{display:inline;}
	.st6{fill:#192936;}
	.st7{fill:#243C4C;}
	.st8{display:inline;opacity:0.05;}
	.st9{fill:#2D4B60;}
</style>
<g>
	<path class="st0" d="M313.08,123.23H80.23V15.53h146.92l34.62,19.78h232.78l0.36,68.04H349.24L313.08,123.23z M82.83,120.63h229.57
		l36.16-19.88H492.3l-0.34-62.83H261.09l-34.62-19.78H82.83V120.63z"/>
</g>
<g>
	<polygon class="st1" points="329,131.64 58.11,131.64 58.11,129.04 328.33,129.04 361.71,110.49 502.06,110.49 502.06,113.09 
		362.39,113.09 	"/>
</g>
<g>
	<polygon class="st1" points="340.02,131.64 313.58,131.64 351.36,110.49 377.8,110.49 	"/>
</g>
<g>
	<g>
		<polygon class="st2" points="501.61,28.27 273.16,28.27 239.77,9.73 58.36,9.73 58.36,7.13 240.45,7.13 273.83,25.67 
			501.61,25.67 		"/>
	</g>
</g>
<g>
	<polygon class="st2" points="286.08,28.27 265.3,28.27 227.42,7.14 248.2,7.14 	"/>
</g>
<g>
	<rect x="58.36" y="7.2" class="st2" width="16.07" height="20.99"/>
</g>
<g>
	<polygon class="st3" points="112.01,55.23 112.01,81.81 119.43,81.81 128.08,69.14 120.04,55.23 	"/>
</g>
<g class="st4">
	<g class="st5">
		<polygon class="st6" points="986.61,60.58 986.61,0 1494.08,0 1494.08,85.48 1189.58,85.48 1165.35,68.86 986.61,68.86 		"/>
	</g>
	<g class="st5">
		<polygon class="st6" points="1509.3,519.62 1509.3,580.21 1001.83,580.21 1001.83,494.73 1314.74,494.73 1340.64,511.34 
			1509.3,511.34 		"/>
	</g>
	<g class="st5">
		<g>
			<g>
				<g>
					<rect x="1247.73" y="100.87" class="st3" width="246.36" height="2.6"/>
				</g>
			</g>
			<g>
				<g>
					<rect x="1527.16" y="100.87" class="st3" width="17.62" height="2.6"/>
				</g>
			</g>
		</g>
		<g>
			<g>
				<g>
					<g>
						<polygon class="st3" points="1189.58,103.46 1171.18,103.46 1141.12,84.19 1159.52,84.19 						"/>
					</g>
				</g>
				<g>
					<g>
						<polygon class="st3" points="1231.96,103.47 1178.45,103.47 1151.84,86.78 1039.08,86.78 1039.08,84.18 1152.52,84.18 
							1179.14,100.87 1231.96,100.87 						"/>
					</g>
				</g>
			</g>
			<g>
				<g>
					<rect x="986.61" y="84.18" class="st3" width="17.62" height="2.6"/>
				</g>
			</g>
		</g>
	</g>
	<g class="st5">
		<g>
			<g>
				<rect x="1037.3" y="476.74" class="st3" width="196.82" height="2.6"/>
			</g>
		</g>
		<g>
			<g>
				<rect x="986.61" y="476.74" class="st3" width="17.62" height="2.6"/>
			</g>
		</g>
		<g>
			<g>
				<rect x="1527.16" y="493.43" class="st3" width="17.62" height="2.6"/>
			</g>
		</g>
		<g>
			<g>
				<g>
					<polygon class="st3" points="1492.31,496.03 1350.47,496.03 1324.01,479.34 1244.94,479.34 1244.94,476.74 1324.69,476.74 
						1351.16,493.43 1492.31,493.43 					"/>
				</g>
			</g>
			<g>
				<polygon class="st3" points="1361.32,496 1342.93,496 1312.87,476.74 1331.26,476.74 				"/>
			</g>
		</g>
	</g>
	<g class="st5">
		<polygon class="st7" points="1064.43,249.75 788.32,249.75 788.32,70.76 586.93,70.76 586.93,68.16 790.92,68.16 790.92,247.15 
			1064.43,247.15 		"/>
	</g>
	<g class="st8">
		<g>
			<g>
				<path class="st3" d="M1453.04,282.21h-373.53V214.7h373.53V282.21z M1082.11,279.61h368.32V217.3h-368.32V279.61z"/>
			</g>
		</g>
		<g>
			<g>
				<rect x="1060.53" y="214.7" class="st3" width="7.8" height="67.51"/>
			</g>
		</g>
	</g>
	<g class="st5">
		<polygon class="st9" points="1103.94,235.16 1103.94,261.74 1111.36,261.74 1120.02,249.07 1111.98,235.16 		"/>
	</g>
	<g class="st5">
		<polygon class="st9" points="1103.94,314.91 1103.94,341.49 1111.36,341.49 1120.02,328.82 1111.98,314.91 		"/>
	</g>
	<g class="st5">
		<polygon class="st9" points="1103.94,155.41 1103.94,181.99 1111.36,181.99 1120.02,169.32 1111.98,155.41 		"/>
	</g>
	<g class="st5">
		<polygon class="st9" points="1103.94,394.66 1103.94,421.25 1111.36,421.25 1120.02,408.57 1111.98,394.66 		"/>
	</g>
</g>
<g>
	<g>
		<rect x="518.16" y="25.67" class="st2" width="75.58" height="2.6"/>
	</g>
</g>
<g>
	<g>
		<rect x="518.16" y="110.49" class="st1" width="75.58" height="2.6"/>
	</g>
</g>
<g>
	<rect x="575.66" y="13.6" class="st2" width="18.08" height="8.05"/>
</g>
<g>
	<rect x="575.66" y="117.12" class="st1" width="18.08" height="8.05"/>
</g>
<g>
	<rect x="17.65" y="129.04" class="st1" width="15.76" height="2.6"/>
</g>
<g>
	<rect x="17.65" y="7.13" class="st2" width="15.76" height="2.6"/>
</g>
<g>
	<g>
		<path class="st0" d="M586.93,105h-61.95V33.77h61.95V105z M527.58,102.54h56.75V36.37h-56.75V102.54z"/>
	</g>
</g>
</svg>
