<?xml version="1.0" encoding="iso-8859-1"?>
<!-- Generator: Adobe Illustrator 19.0.0, SVG Export Plug-In . SVG Version: 6.00 Build 0)  -->
<svg version="1.1" id="Layer_1" xmlns="http://www.w3.org/2000/svg" xmlns:xlink="http://www.w3.org/1999/xlink" x="0px" y="0px"
	 viewBox="0 0 512 512" style="enable-background:new 0 0 512 512;" xml:space="preserve">
<path style="fill:black;" d="M418.126,130.244v368.339c0,7.411-6.008,13.417-13.417,13.417H107.292
	c-7.411,0-13.417-6.006-13.417-13.417V13.417C93.874,6.006,99.881,0,107.292,0h297.417c7.41,0,13.417,6.006,13.417,13.417v89.251"/>
<path style="fill:rgba(0,0,0,0.1);" d="M117.277,498.583V13.417C117.277,6.006,123.284,0,130.695,0h-23.403
	c-7.411,0-13.417,6.006-13.417,13.417v485.166c0,7.411,6.006,13.417,13.417,13.417h23.403
	C123.284,512,117.277,505.994,117.277,498.583z"/>
<path style="fill:grey;" d="M343.012,63.138H168.987c-7.41,0-13.417,6.006-13.417,13.417v358.89
	c0,7.411,6.008,13.417,13.417,13.417h174.024c7.41,0,13.417-6.006,13.417-13.417V76.555
	C356.429,69.144,350.421,63.138,343.012,63.138z"/>
<polyline style="fill:lightgrey;" points="319.756,104.451 356.429,104.451 356.429,295.391 155.57,295.391 155.57,104.451 
	289.568,104.451 "/>
<path style="fill:grey;" d="M155.57,435.445c0,7.411,6.008,13.417,13.417,13.417h174.024c7.41,0,13.417-6.006,13.417-13.417
	V276.658H155.57V435.445z"/>
<g>
	<circle style="fill:white;" cx="127.441" cy="32.604" r="11.181"/>
	<circle style="fill:white;" cx="384.089" cy="32.604" r="11.181"/>
	<circle style="fill:white;" cx="127.441" cy="478.725" r="11.181"/>
	<circle style="fill:white;" cx="384.089" cy="478.725" r="11.181"/>
</g>
<g>
	<path style="fill:red;" d="M255.999,229.26c-4.631,0-8.386-3.753-8.386-8.386V157.83c0-4.632,3.755-8.386,8.386-8.386
		c4.632,0,8.386,3.753,8.386,8.386v63.044C264.385,225.505,260.631,229.26,255.999,229.26z"/>
	<path style="fill:#f5f5f5;" d="M255.999,408.843c-24.351,0-44.165-19.813-44.165-44.165c0-24.352,19.814-44.165,44.165-44.165
		c24.353,0,44.165,19.813,44.165,44.165C300.164,389.03,280.352,408.843,255.999,408.843z M255.999,337.285
		c-15.104,0-27.393,12.288-27.393,27.393c0,15.106,12.289,27.393,27.393,27.393c15.106,0,27.393-12.288,27.393-27.393
		C283.392,349.573,271.104,337.285,255.999,337.285z"/>
	<path style="opacity:0.1;fill:#F5F5F5;enable-background:new    ;" d="M404.708,0h-173.33
		c-18.946,42.478-29.494,89.527-29.494,139.043c0,144.419,89.599,267.912,216.24,317.926V130.244v-27.576V13.417
		C418.126,6.006,412.118,0,404.708,0z"/>
</g>
<g>
</g>
<g>
</g>
<g>
</g>
<g>
</g>
<g>
</g>
<g>
</g>
<g>
</g>
<g>
</g>
<g>
</g>
<g>
</g>
<g>
</g>
<g>
</g>
<g>
</g>
<g>
</g>
<g>
</g>
</svg>
